<?xml version="1.0" encoding="iso-8859-1"?>
<!-- Generator: Adobe Illustrator 18.1.1, SVG Export Plug-In . SVG Version: 6.00 Build 0)  -->
<svg version="1.1" id="Capa_1" xmlns="http://www.w3.org/2000/svg" xmlns:xlink="http://www.w3.org/1999/xlink" x="0px" y="0px"
	 viewBox="0 0 23.659 23.659" style="enable-background:new 0 0 23.659 23.659;" xml:space="preserve">
<g>
	<path style="fill:#030104;" d="M14.712,3.455c0.241-0.351,0.37-0.764,0.37-1.197V2.12c0-1.168-0.95-2.12-2.119-2.12h-2.27
		C9.524,0,8.574,0.951,8.574,2.12v0.138c0,0.434,0.129,0.848,0.371,1.198C7.848,4.921,7.127,7.38,7.127,8.907v14.752h9.404V8.907
		C16.53,7.381,15.808,4.92,14.712,3.455z M9.811,3.731l0.257-0.298L9.791,3.154C9.552,2.914,9.42,2.595,9.42,2.258V2.12
		c0-0.701,0.571-1.271,1.272-1.271h2.27c0.701,0,1.271,0.571,1.271,1.271v0.138c0,0.337-0.132,0.655-0.369,0.896l-0.276,0.279
		l0.258,0.297c1.082,1.25,1.836,3.731,1.836,5.177v2.499H7.974V8.907C7.974,7.462,8.728,4.98,9.811,3.731z M7.974,22.811v-3.104
		h7.708v3.104H7.974z"/>
</g>
<g>
</g>
<g>
</g>
<g>
</g>
<g>
</g>
<g>
</g>
<g>
</g>
<g>
</g>
<g>
</g>
<g>
</g>
<g>
</g>
<g>
</g>
<g>
</g>
<g>
</g>
<g>
</g>
<g>
</g>
</svg>
